<svg width="307" height="153" viewBox="0 0 307 153" fill="none" xmlns="http://www.w3.org/2000/svg">
<path d="M16.3086 0.976562V72.0703H4.05273V0.976562H16.3086ZM73.5352 48.9258H85.7422C85.3516 53.5807 84.0495 57.7311 81.8359 61.377C79.6224 64.9902 76.5137 67.8385 72.5098 69.9219C68.5059 72.0052 63.6393 73.0469 57.9102 73.0469C53.5156 73.0469 49.5605 72.2656 46.0449 70.7031C42.5293 69.1081 39.5182 66.862 37.0117 63.9648C34.5052 61.0352 32.5846 57.5033 31.25 53.3691C29.9479 49.235 29.2969 44.6126 29.2969 39.502V33.5938C29.2969 28.4831 29.9642 23.8607 31.2988 19.7266C32.666 15.5924 34.6191 12.0605 37.1582 9.13086C39.6973 6.16862 42.7409 3.90625 46.2891 2.34375C49.8698 0.78125 53.89 0 58.3496 0C64.0137 0 68.7988 1.04167 72.7051 3.125C76.6113 5.20833 79.6387 8.08919 81.7871 11.7676C83.9681 15.446 85.3027 19.6615 85.791 24.4141H73.584C73.2585 21.3542 72.5423 18.7337 71.4355 16.5527C70.3613 14.3717 68.7663 12.7116 66.6504 11.5723C64.5345 10.4004 61.7676 9.81445 58.3496 9.81445C55.5501 9.81445 53.1087 10.3353 51.0254 11.377C48.9421 12.4186 47.2005 13.9486 45.8008 15.9668C44.401 17.985 43.3431 20.4753 42.627 23.4375C41.9434 26.3672 41.6016 29.7201 41.6016 33.4961V39.502C41.6016 43.0827 41.9108 46.3379 42.5293 49.2676C43.1803 52.1647 44.1569 54.6549 45.459 56.7383C46.7936 58.8216 48.4863 60.4329 50.5371 61.5723C52.5879 62.7116 55.0456 63.2812 57.9102 63.2812C61.3932 63.2812 64.209 62.7279 66.3574 61.6211C68.5384 60.5143 70.1823 58.903 71.2891 56.7871C72.4284 54.6387 73.1771 52.0182 73.5352 48.9258ZM123.535 39.9414H105.42L105.322 31.0059H121.143C123.812 31.0059 126.074 30.6152 127.93 29.834C129.818 29.0202 131.25 27.8646 132.227 26.3672C133.203 24.8372 133.691 22.998 133.691 20.8496C133.691 18.4733 133.236 16.5365 132.324 15.0391C131.413 13.5417 130.013 12.4512 128.125 11.7676C126.27 11.084 123.893 10.7422 120.996 10.7422H109.131V72.0703H96.875V0.976562H120.996C124.902 0.976562 128.385 1.35091 131.445 2.09961C134.538 2.84831 137.158 4.02018 139.307 5.61523C141.488 7.17773 143.132 9.16341 144.238 11.5723C145.378 13.9811 145.947 16.8457 145.947 20.166C145.947 23.0957 145.247 25.7812 143.848 28.2227C142.448 30.6315 140.381 32.6009 137.646 34.1309C134.912 35.6608 131.51 36.5723 127.441 36.8652L123.535 39.9414ZM122.998 72.0703H101.562L107.08 62.3535H122.998C125.765 62.3535 128.076 61.8978 129.932 60.9863C131.787 60.0423 133.171 58.7565 134.082 57.1289C135.026 55.4688 135.498 53.5319 135.498 51.3184C135.498 49.0072 135.091 47.0052 134.277 45.3125C133.464 43.5872 132.178 42.2689 130.42 41.3574C128.662 40.4134 126.367 39.9414 123.535 39.9414H109.766L109.863 31.0059H127.783L130.566 34.375C134.473 34.5052 137.679 35.3678 140.186 36.9629C142.725 38.5579 144.613 40.625 145.85 43.1641C147.087 45.7031 147.705 48.4375 147.705 51.3672C147.705 55.8919 146.712 59.6842 144.727 62.7441C142.773 65.804 139.958 68.1315 136.279 69.7266C132.601 71.2891 128.174 72.0703 122.998 72.0703ZM165.039 0.976562H175.977L196.533 55.8105L217.041 0.976562H227.979L200.83 72.0703H192.139L165.039 0.976562ZM160.059 0.976562H170.459L172.266 48.4375V72.0703H160.059V0.976562ZM222.559 0.976562H233.008V72.0703H220.752V48.4375L222.559 0.976562ZM276.123 10.4492L254.883 72.0703H242.041L268.799 0.976562H277.002L276.123 10.4492ZM293.896 72.0703L272.607 10.4492L271.68 0.976562H279.932L306.787 72.0703H293.896ZM292.871 45.7031V55.4199H254.199V45.7031H292.871ZM49.0234 141.695V151.07H1.36719V143.014L24.5117 117.77C27.0508 114.905 29.0527 112.431 30.5176 110.348C31.9824 108.264 33.0078 106.393 33.5938 104.732C34.2122 103.04 34.5215 101.396 34.5215 99.8008C34.5215 97.5547 34.0983 95.5853 33.252 93.8926C32.4382 92.1673 31.2337 90.8164 29.6387 89.8398C28.0436 88.8307 26.1068 88.3262 23.8281 88.3262C21.1914 88.3262 18.9779 88.8958 17.1875 90.0352C15.3971 91.1745 14.0462 92.7533 13.1348 94.7715C12.2233 96.7572 11.7676 99.0358 11.7676 101.607H0C0 97.4733 0.94401 93.6973 2.83203 90.2793C4.72005 86.8288 7.45443 84.0944 11.0352 82.0762C14.6159 80.0254 18.929 79 23.9746 79C28.7272 79 32.7637 79.7975 36.084 81.3926C39.4043 82.9876 41.9271 85.25 43.6523 88.1797C45.4102 91.1094 46.2891 94.5762 46.2891 98.5801C46.2891 100.794 45.931 102.991 45.2148 105.172C44.4987 107.353 43.4733 109.534 42.1387 111.715C40.8366 113.863 39.2904 116.028 37.5 118.209C35.7096 120.357 33.7402 122.538 31.5918 124.752L16.2109 141.695H49.0234ZM104.541 109.566V121.188C104.541 126.754 103.988 131.507 102.881 135.445C101.807 139.352 100.244 142.525 98.1934 144.967C96.1426 147.408 93.6849 149.199 90.8203 150.338C87.9883 151.477 84.8145 152.047 81.2988 152.047C78.4993 152.047 75.8952 151.689 73.4863 150.973C71.11 150.257 68.9616 149.133 67.041 147.604C65.1204 146.074 63.4766 144.104 62.1094 141.695C60.7747 139.254 59.7331 136.34 58.9844 132.955C58.2682 129.57 57.9102 125.647 57.9102 121.188V109.566C57.9102 103.967 58.4635 99.2474 59.5703 95.4062C60.6771 91.5326 62.2559 88.3913 64.3066 85.9824C66.3574 83.541 68.7988 81.7669 71.6309 80.6602C74.4954 79.5534 77.6855 79 81.2012 79C84.0332 79 86.6374 79.3581 89.0137 80.0742C91.4225 80.7578 93.571 81.8483 95.459 83.3457C97.3796 84.8431 99.0072 86.7962 100.342 89.2051C101.709 91.5814 102.751 94.4622 103.467 97.8477C104.183 101.201 104.541 105.107 104.541 109.566ZM92.7734 122.848V107.809C92.7734 104.977 92.6107 102.486 92.2852 100.338C91.9596 98.1569 91.4714 96.3177 90.8203 94.8203C90.2018 93.2904 89.4206 92.0534 88.4766 91.1094C87.5326 90.1328 86.4583 89.4329 85.2539 89.0098C84.0495 88.554 82.6986 88.3262 81.2012 88.3262C79.3783 88.3262 77.7507 88.6842 76.3184 89.4004C74.8861 90.084 73.6816 91.1908 72.7051 92.7207C71.7285 94.2507 70.9798 96.2689 70.459 98.7754C69.9707 101.249 69.7266 104.26 69.7266 107.809V122.848C69.7266 125.712 69.8893 128.235 70.2148 130.416C70.5404 132.597 71.0286 134.469 71.6797 136.031C72.3307 137.561 73.112 138.831 74.0234 139.84C74.9674 140.816 76.0417 141.533 77.2461 141.988C78.4831 142.444 79.834 142.672 81.2988 142.672C83.1543 142.672 84.7982 142.314 86.2305 141.598C87.6628 140.882 88.8672 139.742 89.8438 138.18C90.8203 136.585 91.5527 134.518 92.041 131.979C92.5293 129.439 92.7734 126.396 92.7734 122.848ZM162.695 141.695V151.07H115.039V143.014L138.184 117.77C140.723 114.905 142.725 112.431 144.189 110.348C145.654 108.264 146.68 106.393 147.266 104.732C147.884 103.04 148.193 101.396 148.193 99.8008C148.193 97.5547 147.77 95.5853 146.924 93.8926C146.11 92.1673 144.906 90.8164 143.311 89.8398C141.715 88.8307 139.779 88.3262 137.5 88.3262C134.863 88.3262 132.65 88.8958 130.859 90.0352C129.069 91.1745 127.718 92.7533 126.807 94.7715C125.895 96.7572 125.439 99.0358 125.439 101.607H113.672C113.672 97.4733 114.616 93.6973 116.504 90.2793C118.392 86.8288 121.126 84.0944 124.707 82.0762C128.288 80.0254 132.601 79 137.646 79C142.399 79 146.436 79.7975 149.756 81.3926C153.076 82.9876 155.599 85.25 157.324 88.1797C159.082 91.1094 159.961 94.5762 159.961 98.5801C159.961 100.794 159.603 102.991 158.887 105.172C158.171 107.353 157.145 109.534 155.811 111.715C154.508 113.863 152.962 116.028 151.172 118.209C149.382 120.357 147.412 122.538 145.264 124.752L129.883 141.695H162.695ZM207.422 79.5371H208.887V89.1562H208.057C203.857 89.1562 200.228 89.8073 197.168 91.1094C194.141 92.4115 191.65 94.2018 189.697 96.4805C187.744 98.7591 186.279 101.428 185.303 104.488C184.359 107.516 183.887 110.738 183.887 114.156V125.338C183.887 128.17 184.196 130.676 184.814 132.857C185.433 135.006 186.296 136.812 187.402 138.277C188.542 139.71 189.844 140.8 191.309 141.549C192.773 142.298 194.352 142.672 196.045 142.672C197.803 142.672 199.398 142.314 200.83 141.598C202.262 140.849 203.483 139.824 204.492 138.521C205.501 137.219 206.266 135.673 206.787 133.883C207.308 132.092 207.568 130.139 207.568 128.023C207.568 126.005 207.308 124.117 206.787 122.359C206.299 120.569 205.566 119.007 204.59 117.672C203.613 116.305 202.393 115.247 200.928 114.498C199.495 113.717 197.835 113.326 195.947 113.326C193.604 113.326 191.471 113.88 189.551 114.986C187.663 116.093 186.133 117.542 184.961 119.332C183.822 121.09 183.203 122.962 183.105 124.947L178.613 123.482C178.874 120.455 179.541 117.737 180.615 115.328C181.722 112.919 183.171 110.868 184.961 109.176C186.751 107.483 188.818 106.197 191.162 105.318C193.538 104.407 196.143 103.951 198.975 103.951C202.425 103.951 205.42 104.602 207.959 105.904C210.498 107.206 212.598 108.98 214.258 111.227C215.951 113.44 217.204 115.979 218.018 118.844C218.864 121.676 219.287 124.638 219.287 127.73C219.287 131.148 218.766 134.339 217.725 137.301C216.683 140.23 215.153 142.802 213.135 145.016C211.149 147.229 208.724 148.954 205.859 150.191C203.027 151.428 199.805 152.047 196.191 152.047C192.383 152.047 188.981 151.314 185.986 149.85C183.024 148.385 180.501 146.367 178.418 143.795C176.367 141.223 174.805 138.261 173.73 134.908C172.656 131.555 172.119 128.007 172.119 124.264V119.381C172.119 113.977 172.803 108.883 174.17 104.098C175.537 99.2799 177.637 95.0319 180.469 91.3535C183.333 87.6751 186.995 84.7943 191.455 82.7109C195.915 80.5951 201.237 79.5371 207.422 79.5371Z" fill="#0055FF"/>
</svg>
